<svg width="40" height="40" viewBox="0 0 40 40" fill="none" xmlns="http://www.w3.org/2000/svg">
<g clip-path="url(#clip0_701_209)">
<path d="M19.801 0.000678065C30.7584 0.0929623 39.5639 9.10931 39.4964 20.1676C39.4297 31.1093 30.4317 40.0846 19.6144 39.9994C8.70439 39.9134 -0.110819 30.8159 0.00105315 19.7579C0.111367 8.85994 9.08034 -0.0896669 19.801 0.000678065Z" fill="#E6523B"/>
<path d="M11.8568 19.8735C11.8568 18.5531 11.8459 17.2328 11.8611 15.9127C11.8698 15.1576 11.9014 14.3166 12.9398 14.3694C13.938 14.4201 13.9446 15.2519 13.9458 16.007C13.9496 18.3054 13.9322 20.6038 13.9508 22.9019C13.981 26.6274 16.3601 29.1724 19.775 29.1602C23.1724 29.1482 25.5781 26.5497 25.6004 22.8634C25.6073 21.7387 25.6076 20.6139 25.6031 19.4894C25.6002 18.8022 25.8981 18.3045 26.5905 18.2978C27.2724 18.2911 27.6425 18.7841 27.6301 19.4561C27.5949 21.3571 27.8129 23.2682 27.3841 25.155C26.5141 28.9832 23.0264 31.4821 18.9469 31.1801C15.3437 30.9135 12.2568 27.828 11.9843 24.1214C11.8808 22.7127 11.9675 21.2897 11.9675 19.8734C11.9307 19.8735 11.8937 19.8735 11.8568 19.8735Z" fill="#FFFDFD"/>
<path d="M24.1711 17.4274C24.1711 19.2347 24.1861 21.0423 24.1676 22.8495C24.1403 25.5135 22.3122 27.4967 19.8336 27.5819C17.4054 27.6655 15.3268 25.6987 15.2734 23.0701C15.197 19.3102 15.2513 15.5475 15.2527 11.7861C15.2529 11.0476 15.4009 10.3498 16.2967 10.3297C17.2444 10.3085 17.3076 11.0501 17.3082 11.7699C17.3113 14.9451 17.31 18.1202 17.3102 21.2954C17.3102 21.6374 17.3055 21.9795 17.3113 22.3214C17.3453 24.3605 18.2167 25.5155 19.7199 25.5185C21.2183 25.5213 22.1201 24.3357 22.1247 22.3351C22.1325 18.9155 22.126 15.4961 22.1409 12.0767C22.1443 11.3253 21.9372 10.3282 23.1006 10.3196C24.3265 10.3104 24.1637 11.3346 24.1683 12.1515C24.1781 13.9101 24.1713 15.6687 24.1711 17.4274Z" fill="white"/>
<path d="M18.6824 16.3294C18.6824 14.325 18.6868 12.3207 18.68 10.3163C18.6776 9.59195 18.7166 8.85812 19.6455 8.81772C20.6894 8.77223 20.7179 9.55509 20.7166 10.337C20.7099 14.2967 20.7033 18.2567 20.7222 22.2165C20.7259 22.995 20.5524 23.673 19.694 23.6639C18.8414 23.6549 18.6653 22.9683 18.6747 22.1959C18.6984 20.2405 18.6825 18.2849 18.6824 16.3294Z" fill="#FFFDFD"/>
</g>
<defs>
<clipPath id="clip0_701_209">
<rect width="40" height="40" fill="white"/>
</clipPath>
</defs>
</svg>
